<svg width="180" height="180" viewBox="0 0 180 180" fill="none" xmlns="http://www.w3.org/2000/svg">
<rect width="180" height="180" fill="#EEEEEE"/>
<path fill-rule="evenodd" clip-rule="evenodd" d="M136.999 64.1535L146.708 104.897C146.845 105.317 146.878 105.765 146.804 106.201C146.73 106.637 146.551 107.047 146.284 107.396C146.016 107.745 145.668 108.022 145.271 108.202C144.873 108.382 144.438 108.459 144.003 108.427H136.283C134.953 119.625 125.549 128.303 114.146 128.303C102.743 128.303 93.3397 119.625 92.0096 108.427H88.2231C86.8917 119.754 77.3843 128.537 65.8536 128.537C54.3035 128.537 44.7835 119.725 43.4775 108.37H35.952C35.5271 108.391 35.1035 108.308 34.7165 108.128C34.3295 107.949 33.9905 107.678 33.7276 107.338C33.4648 106.998 33.2858 106.599 33.2056 106.174C33.1254 105.75 33.1464 105.312 33.2667 104.897L42.994 64.1535C43.67 59.6689 47.8764 51.463 59.1435 51.463C59.8905 51.463 60.607 51.7646 61.1352 52.3014C61.6635 52.8382 61.9602 53.5663 61.9602 54.3255C61.9602 55.0847 61.6635 55.8128 61.1352 56.3496C60.607 56.8865 59.8905 57.188 59.1435 57.188C50.0735 57.188 48.6651 64.3062 48.5524 65.0886L39.5951 102.721H43.514C44.9519 91.512 54.4056 82.8548 65.8536 82.8548C77.2953 82.8548 86.7449 91.5025 88.1908 102.703L92.0399 102.72C93.4766 91.6413 102.826 83.0891 114.146 83.0891C125.488 83.0891 134.852 91.6746 136.261 102.785V102.683H140.379L131.441 65.0886C131.309 64.3062 129.957 57.188 120.85 57.188C120.103 57.188 119.386 56.8865 118.858 56.3496C118.33 55.8128 118.033 55.0847 118.033 54.3255C118.033 53.5663 118.33 52.8382 118.858 52.3014C119.386 51.7646 120.103 51.463 120.85 51.463C132.117 51.463 136.323 59.6689 136.999 64.1535ZM82.6244 108.427C82.7643 107.538 82.8369 106.625 82.8369 105.696C82.8369 104.676 82.7494 103.676 82.5816 102.705C81.1849 94.6209 74.2269 88.4773 65.8536 88.4773C57.4753 88.4773 50.514 94.6282 49.1232 102.719C48.9569 103.686 48.8703 104.681 48.8703 105.696C48.8703 106.61 48.9406 107.508 49.076 108.384C50.349 116.617 57.3759 122.915 65.8536 122.915C74.3164 122.915 81.3335 116.639 82.6244 108.427ZM130.683 108.427C130.825 107.538 130.899 106.626 130.899 105.696C130.899 96.3157 123.398 88.7115 114.146 88.7115C104.894 88.7115 97.394 96.3157 97.394 105.696C97.394 106.626 97.4677 107.538 97.6095 108.427C98.8982 116.509 105.811 122.68 114.146 122.68C122.481 122.68 129.394 116.509 130.683 108.427Z" fill="black"/>
</svg>
