<svg width="155" height="48" viewBox="0 0 155 48" fill="none" xmlns="http://www.w3.org/2000/svg">
<g filter="url(#filter0_d_1226_140)">
<path d="M76.1933 18.4249C76.1932 18.0921 76.3255 17.7726 76.562 17.5345C76.7985 17.2965 77.1204 17.1589 77.4588 17.1511H84.6703C89.7826 17.1511 93.1473 19.827 93.1473 24.211V24.2703C93.1473 29.069 89.0695 31.5573 84.2484 31.5573H78.7544V38.2913C78.7702 38.466 78.7488 38.6421 78.6916 38.8082C78.6344 38.9743 78.5426 39.1269 78.4222 39.2563C78.3017 39.3856 78.1552 39.489 77.992 39.5596C77.8287 39.6303 77.6522 39.6668 77.4738 39.6668C77.2954 39.6668 77.119 39.6303 76.9557 39.5596C76.7925 39.489 76.6459 39.3856 76.5255 39.2563C76.405 39.1269 76.3133 38.9743 76.2561 38.8082C76.1989 38.6421 76.1775 38.466 76.1933 38.2913V18.4249ZM84.3489 29.2863C88.0952 29.2863 90.556 27.3115 90.556 24.3493V24.29C90.556 21.1106 88.1354 19.4616 84.5297 19.4616H78.8047V29.2468L84.3489 29.2863Z" fill="white"/>
<path d="M98.0187 18.2669C98.0029 18.0922 98.0243 17.9162 98.0815 17.7501C98.1387 17.5839 98.2305 17.4313 98.3509 17.302C98.4714 17.1726 98.6179 17.0693 98.7812 16.9986C98.9444 16.9279 99.1209 16.8914 99.2993 16.8914C99.4777 16.8914 99.6541 16.9279 99.8174 16.9986C99.9807 17.0693 100.127 17.1726 100.248 17.302C100.368 17.4313 100.46 17.5839 100.517 17.7501C100.574 17.9162 100.596 18.0922 100.58 18.2669V38.2913C100.596 38.466 100.574 38.642 100.517 38.8082C100.46 38.9743 100.368 39.1269 100.248 39.2563C100.127 39.3856 99.9807 39.489 99.8174 39.5596C99.6541 39.6303 99.4777 39.6668 99.2993 39.6668C99.1209 39.6668 98.9444 39.6303 98.7812 39.5596C98.6179 39.489 98.4714 39.3856 98.3509 39.2563C98.2305 39.1269 98.1387 38.9743 98.0815 38.8082C98.0243 38.642 98.0029 38.466 98.0187 38.2913V18.2669Z" fill="white"/>
<path d="M107.199 18.2965C107.206 17.9699 107.343 17.6588 107.579 17.4287C107.815 17.1986 108.132 17.0673 108.464 17.0623H108.816C109.077 17.0675 109.332 17.1372 109.559 17.2649C109.785 17.3925 109.975 17.5741 110.111 17.7929L123.862 35.0231V18.2373C123.862 17.9125 123.993 17.6011 124.226 17.3715C124.46 17.1419 124.777 17.0129 125.107 17.0129C125.437 17.0129 125.754 17.1419 125.988 17.3715C126.221 17.6011 126.352 17.9125 126.352 18.2373V38.3308C126.358 38.4836 126.332 38.6359 126.275 38.7784C126.219 38.9209 126.134 39.0506 126.025 39.1596C125.916 39.2687 125.785 39.3547 125.641 39.4125C125.497 39.4704 125.343 39.4987 125.187 39.496H125.057C124.79 39.4779 124.531 39.3989 124.301 39.2652C124.071 39.1314 123.876 38.9468 123.731 38.7258L109.67 21.0908V38.3308C109.667 38.6491 109.541 38.9544 109.317 39.184C109.093 39.4135 108.788 39.5499 108.464 39.5651C108.136 39.5599 107.823 39.4272 107.593 39.1961C107.363 38.9649 107.236 38.6539 107.239 38.3308V18.2965H107.199Z" fill="white"/>
<path d="M132.74 18.2669C132.724 18.0922 132.746 17.9162 132.803 17.7501C132.86 17.5839 132.952 17.4313 133.072 17.302C133.193 17.1726 133.339 17.0693 133.503 16.9986C133.666 16.9279 133.842 16.8914 134.021 16.8914C134.199 16.8914 134.376 16.9279 134.539 16.9986C134.702 17.0693 134.849 17.1726 134.969 17.302C135.09 17.4313 135.181 17.5839 135.238 17.7501C135.296 17.9162 135.317 18.0922 135.301 18.2669V30.4415L148.198 17.4375C148.462 17.1684 148.822 17.0094 149.202 16.9931C149.531 17.0057 149.842 17.1418 150.072 17.3732C150.302 17.6046 150.433 17.9139 150.437 18.2373C150.43 18.4054 150.389 18.5706 150.317 18.7231C150.245 18.8756 150.142 19.0125 150.016 19.1259L141.98 26.9461L150.648 37.3731C150.875 37.631 151 37.9604 151 38.3012C150.996 38.472 150.958 38.6402 150.887 38.7964C150.817 38.9525 150.716 39.0934 150.59 39.2109C150.464 39.3284 150.315 39.4202 150.153 39.481C149.991 39.5418 149.818 39.5703 149.644 39.5651C149.442 39.557 149.245 39.5006 149.07 39.4008C148.895 39.3011 148.747 39.1609 148.64 38.9924L140.183 28.6346L135.301 33.4333V38.2716C135.301 38.4363 135.268 38.5993 135.204 38.7515C135.14 38.9036 135.046 39.0419 134.928 39.1583C134.809 39.2747 134.669 39.3671 134.514 39.4301C134.359 39.4932 134.193 39.5256 134.026 39.5256C133.858 39.5256 133.692 39.4932 133.538 39.4301C133.383 39.3671 133.242 39.2747 133.124 39.1583C133.005 39.0419 132.911 38.9036 132.847 38.7515C132.783 38.5993 132.75 38.4363 132.75 38.2716V18.2669H132.74Z" fill="white"/>
<path d="M102.94 9.74563C101.975 9.74563 101.049 9.36936 100.365 8.69932C99.682 8.02927 99.2967 7.12014 99.2941 6.17125C99.2941 7.11923 98.911 8.02839 98.2292 8.69872C97.5473 9.36905 96.6225 9.74563 95.6582 9.74563C96.6234 9.74825 97.5482 10.127 98.2298 10.7989C98.9113 11.4708 99.2941 12.381 99.2941 13.3299C99.2967 12.3801 99.6817 11.4699 100.365 10.7983C101.048 10.1267 101.974 9.74824 102.94 9.74563Z" fill="#D22856"/>
<path d="M47.2871 19.0667C47.5382 19.0667 47.7793 19.0667 48.0203 19.0667C47.802 18.6988 47.4898 18.3933 47.1146 18.1803C46.7394 17.9673 46.3142 17.8542 45.881 17.8522C45.4628 17.8519 45.0552 17.7233 44.7149 17.4843C44.3746 17.2454 44.1186 16.908 43.9827 16.5192C43.259 16.7245 42.5562 16.9955 41.8835 17.3289H42.0744C42.6071 17.3289 43.1181 17.5369 43.4948 17.9073C43.8715 18.2776 44.0832 18.7799 44.0832 19.3037C44.0881 19.399 44.0881 19.4946 44.0832 19.59C45.1091 19.2225 46.1954 19.0451 47.2871 19.0667Z" fill="white"/>
<path d="M64.7332 27.6472L59.5406 6.56621C59.179 4.24582 56.9291 0 50.9028 0C50.5033 0 50.1201 0.156044 49.8375 0.433804C49.555 0.711564 49.3962 1.08829 49.3962 1.4811C49.3962 1.87391 49.555 2.25063 49.8375 2.52839C50.1201 2.80615 50.5033 2.9622 50.9028 2.9622C55.7741 2.9622 56.4973 6.6452 56.5676 7.05003L61.3484 26.5018H59.2493C59.0321 24.805 58.4439 23.1744 57.525 21.7222C56.6061 20.2701 55.3783 19.0307 53.926 18.0892C53.4712 18.2774 53.0829 18.5932 52.8096 18.9971C52.5363 19.401 52.3901 19.8751 52.3893 20.3602C52.3948 20.4457 52.3948 20.5314 52.3893 20.6169C53.6107 21.4404 54.6131 22.5401 55.3122 23.8236C56.0113 25.1072 56.3867 26.537 56.4069 27.9928C56.4008 28.4894 56.3538 28.9847 56.2663 29.4739C55.9375 31.5714 54.8559 33.484 53.2173 34.8657C51.5786 36.2474 49.4911 37.007 47.3322 37.007C45.1734 37.007 43.0859 36.2474 41.4472 34.8657C39.8086 33.484 38.727 31.5714 38.3982 29.4739C38.3107 28.9847 38.2636 28.4894 38.2576 27.9928C38.2733 26.6229 38.5993 25.2737 39.2118 24.0432C38.7037 24.0081 38.2282 23.7847 37.8814 23.4181C37.5346 23.0515 37.3424 22.569 37.3436 22.0684C37.3453 21.889 37.277 21.7159 37.1528 21.5846C36.181 23.0752 35.5662 24.7633 35.3549 26.5215H33.4868C33.1663 23.6174 31.7658 20.9319 29.5542 18.9809C27.3427 17.0298 24.4759 15.9507 21.5044 15.9507C18.5329 15.9507 15.6662 17.0298 13.4546 18.9809C11.2431 20.9319 9.84259 23.6174 9.5221 26.5215H7.44302L12.2339 7.05003C12.2942 6.6452 13.0475 2.9622 17.8987 2.9622C18.2983 2.9622 18.6815 2.80615 18.964 2.52839C19.2465 2.25063 19.4053 1.87391 19.4053 1.4811C19.4053 1.08829 19.2465 0.711564 18.964 0.433804C18.6815 0.156044 18.2983 0 17.8987 0C11.8724 0 9.62254 4.24582 9.26096 6.56621L4.05824 27.6472C3.99388 27.8617 3.98267 28.0883 4.02556 28.308C4.06845 28.5277 4.16418 28.7341 4.30476 28.91C4.44534 29.0859 4.62669 29.2262 4.83366 29.3191C5.04064 29.4121 5.26723 29.455 5.49451 29.4443H9.51206C9.59378 30.055 9.72135 30.659 9.89372 31.2512C9.95717 31.1429 9.99172 31.0206 9.99416 30.8957C9.99416 30.372 10.2058 29.8697 10.5825 29.4993C10.9592 29.129 11.4702 28.9209 12.0029 28.9209C12.166 28.9231 12.3281 28.9463 12.485 28.99C12.4413 28.6461 12.4178 28.2999 12.4147 27.9533C12.4174 27.4569 12.4611 26.9616 12.5453 26.4722C12.8671 24.3679 13.9463 22.4469 15.5867 21.0586C17.2271 19.6702 19.3198 18.9066 21.4843 18.9066C23.6489 18.9066 25.7416 19.6702 27.382 21.0586C29.0224 22.4469 30.1016 24.3679 30.4234 26.4722C30.5076 26.9616 30.5513 27.4569 30.554 27.9533C30.5382 30.3054 29.5807 32.5567 27.8889 34.2199C26.1971 35.8831 23.907 36.8243 21.5145 36.8399C19.5563 36.8663 17.6424 36.2668 16.0607 35.1317C15.6982 35.4412 15.235 35.6128 14.755 35.6155C14.5569 35.6181 14.3679 35.6973 14.2288 35.8359C14.0897 35.9745 14.0117 36.1613 14.0117 36.356C14.009 36.6321 13.9474 36.9046 13.8309 37.1558C15.9797 38.9066 18.6835 39.8636 21.4743 39.8613C24.4223 39.8738 27.2728 38.8236 29.4864 36.9095C31.7 34.9953 33.1232 32.35 33.4868 29.4739H35.3147C35.6456 32.3691 37.0499 35.0431 39.2593 36.9848C41.4688 38.9266 44.3285 40 47.2921 40C50.2557 40 53.1154 38.9266 55.3248 36.9848C57.5343 35.0431 58.9385 32.3691 59.2694 29.4739H63.2869C63.5191 29.4904 63.7519 29.4503 63.9647 29.3573C64.1774 29.2642 64.3635 29.121 64.5065 28.9404C64.6495 28.7598 64.7451 28.5473 64.7846 28.3217C64.8241 28.0961 64.8065 27.8645 64.7332 27.6472Z" fill="white"/>
<path d="M54.9203 15.9169C54.3273 15.9182 53.7398 15.8045 53.1915 15.5822C52.6432 15.36 52.1448 15.0337 51.725 14.6219C51.3052 14.21 50.9721 13.7209 50.7448 13.1823C50.5176 12.6438 50.4006 12.0665 50.4006 11.4835C50.3979 12.6602 49.9206 13.7878 49.0733 14.619C48.2259 15.4501 47.0778 15.9169 45.8809 15.9169C47.0788 15.9195 48.2268 16.3885 49.0739 17.2212C49.9209 18.0539 50.3979 19.1825 50.4006 20.3602C50.4006 19.1817 50.8768 18.0516 51.7244 17.2183C52.572 16.385 53.7216 15.9169 54.9203 15.9169Z" fill="#D22856"/>
<path d="M42.0744 19.3826C41.3418 19.3826 40.6393 19.0966 40.1213 18.5873C39.6033 18.0781 39.3123 17.3875 39.3123 16.6673C39.3123 17.3857 39.0227 18.0749 38.5069 18.5839C37.9911 19.0928 37.2911 19.38 36.5603 19.3826C37.2902 19.3826 37.9902 19.6677 38.5063 20.1751C39.0224 20.6824 39.3123 21.3706 39.3123 22.0881C39.315 21.3697 39.6072 20.6816 40.1249 20.1745C40.6426 19.6674 41.3436 19.3826 42.0744 19.3826Z" fill="#D22856"/>
<path d="M14.785 33.6407C14.056 33.6355 13.3586 33.3471 12.8449 32.8384C12.3313 32.3298 12.043 31.6421 12.043 30.9253C12.043 31.6438 11.7534 32.333 11.2376 32.8419C10.7218 33.3508 10.0218 33.6381 9.29102 33.6407C10.0218 33.6433 10.7218 33.9305 11.2376 34.4395C11.7534 34.9484 12.043 35.6376 12.043 36.356C12.043 35.6393 12.3313 34.9516 12.8449 34.4429C13.3586 33.9343 14.056 33.6459 14.785 33.6407Z" fill="#D22856"/>
</g>
<defs>
<filter id="filter0_d_1226_140" x="0" y="0" width="155" height="48" filterUnits="userSpaceOnUse" color-interpolation-filters="sRGB">
<feFlood flood-opacity="0" result="BackgroundImageFix"/>
<feColorMatrix in="SourceAlpha" type="matrix" values="0 0 0 0 0 0 0 0 0 0 0 0 0 0 0 0 0 0 127 0" result="hardAlpha"/>
<feOffset dy="4"/>
<feGaussianBlur stdDeviation="2"/>
<feComposite in2="hardAlpha" operator="out"/>
<feColorMatrix type="matrix" values="0 0 0 0 0 0 0 0 0 0 0 0 0 0 0 0 0 0 0.25 0"/>
<feBlend mode="normal" in2="BackgroundImageFix" result="effect1_dropShadow_1226_140"/>
<feBlend mode="normal" in="SourceGraphic" in2="effect1_dropShadow_1226_140" result="shape"/>
</filter>
</defs>
</svg>
